<?xml version="1.0" standalone="no"?>
<!DOCTYPE svg PUBLIC "-//W3C//DTD SVG 20010904//EN"
 "http://www.w3.org/TR/2001/REC-SVG-20010904/DTD/svg10.dtd">
<svg version="1.0" xmlns="http://www.w3.org/2000/svg"
 width="460.000000pt" height="468.726082pt" viewBox="0 0 460.000000 468.726082"
 preserveAspectRatio="xMidYMid meet">
<metadata>
Created by potrace 1.12, written by Peter Selinger 2001-2015
</metadata>
<g transform="translate(0.000000,468.726082) scale(0.100000,-0.100000)"
fill="#000000" stroke="none">
<path d="M2765 4683 c-16 -3 -34 -9 -40 -15 -7 -7 4 -9 35 -4 31 4 40 3 30 -4
-11 -7 -3 -9 30 -9 40 1 42 2 15 9 -30 7 -30 7 -5 13 14 3 34 8 45 10 26 6
-71 5 -110 0z"/>
<path d="M2245 4670 c-4 -6 -16 -10 -28 -9 -58 5 -108 -1 -104 -13 2 -7 8 -12
13 -11 5 1 35 3 66 6 34 3 63 11 73 21 14 14 14 16 1 16 -8 0 -18 -5 -21 -10z"/>
<path d="M2883 4643 c9 -2 25 -2 35 0 9 3 1 5 -18 5 -19 0 -27 -2 -17 -5z"/>
<path d="M2010 4590 c-8 -5 -25 -10 -37 -10 -12 0 -29 -10 -37 -22 -13 -18
-16 -19 -16 -6 0 11 -5 15 -15 12 -17 -7 -21 -34 -5 -34 6 0 34 -16 63 -35 28
-19 57 -35 64 -35 7 0 13 -4 13 -10 0 -14 4 -15 -103 40 -78 40 -97 47 -97 33
0 -9 3 -14 6 -10 3 3 17 -7 31 -24 14 -16 32 -29 41 -29 8 0 13 -3 9 -6 -3 -3
10 -20 29 -36 45 -39 36 -50 -10 -12 -82 68 -156 92 -164 52 -3 -14 3 -18 22
-18 14 0 26 -5 26 -11 0 -5 -4 -7 -10 -4 -5 3 -11 -4 -11 -17 -1 -17 -3 -18
-6 -5 -5 21 -20 22 -39 3 -12 -13 -10 -17 12 -35 15 -12 33 -21 40 -21 8 0 14
-10 14 -22 0 -12 8 -31 18 -42 17 -21 17 -21 -5 -2 -13 11 -23 28 -23 38 0 11
-6 18 -15 16 -8 -2 -27 12 -43 31 -25 31 -30 33 -51 21 -16 -8 -20 -15 -12
-19 8 -5 5 -13 -9 -26 -11 -10 -18 -25 -16 -32 3 -7 1 -15 -4 -18 -5 -3 -8
-30 -7 -61 3 -58 -7 -48 -18 19 l-6 38 -37 -26 -37 -27 28 26 c16 15 27 31 25
37 -6 17 -122 -102 -138 -141 -18 -48 -39 -70 -58 -63 -15 4 -15 3 -2 -6 13
-9 12 -12 -5 -25 -11 -9 -15 -16 -8 -16 6 0 25 11 41 25 16 13 32 22 36 18 3
-3 16 2 28 13 16 14 15 10 -6 -18 -34 -46 -28 -48 19 -7 19 17 35 27 35 22 0
-13 -43 -53 -57 -53 -13 0 -113 -98 -113 -111 0 -6 5 -7 10 -4 19 12 10 -21
-11 -38 -26 -23 -19 -32 13 -16 12 7 28 15 35 18 6 3 29 21 51 39 49 40 49 23
-1 -47 -27 -38 -43 -51 -55 -47 -23 8 -50 -33 -30 -45 9 -6 7 -9 -8 -9 -23 0
-58 -33 -47 -44 4 -4 -1 -4 -11 0 -14 5 -17 3 -14 -7 3 -8 -10 -31 -30 -51
-30 -31 -33 -38 -19 -44 14 -5 15 -10 5 -27 -11 -22 -11 -22 11 -3 11 11 21
15 21 11 0 -4 9 0 20 10 13 11 20 14 20 6 0 -8 10 -4 27 8 28 23 43 21 23 -3
-10 -13 -7 -15 19 -11 18 2 29 0 26 -6 -4 -5 -13 -9 -21 -9 -8 0 -14 -5 -14
-11 0 -5 -5 -7 -10 -4 -6 4 -17 2 -24 -4 -7 -6 -27 -12 -45 -13 -33 -2 -33 -2
-11 -20 18 -15 19 -20 9 -40 -7 -12 -23 -31 -36 -41 -26 -21 -30 -44 -8 -44 8
0 15 6 15 14 0 7 5 13 10 13 6 0 10 5 10 10 0 13 40 53 47 46 3 -2 16 7 28 22
18 20 23 23 21 9 -1 -9 -8 -23 -14 -29 -7 -7 -12 -16 -12 -22 0 -15 63 63 87
108 l22 41 1 -37 c0 -28 -5 -40 -21 -48 -20 -11 -20 -12 -2 -26 13 -10 14 -14
3 -12 -10 2 -14 -4 -12 -21 2 -19 -32 -91 -42 -91 -2 0 -2 13 -1 29 1 26 -1
29 -16 21 -9 -6 -19 -13 -21 -18 -1 -4 -27 -25 -56 -46 -28 -21 -50 -41 -47
-46 3 -4 -2 -10 -10 -14 -10 -4 -14 -20 -14 -56 1 -27 6 -50 10 -50 5 0 9 6 9
14 0 8 5 18 11 22 8 4 9 -1 4 -17 -5 -18 -4 -20 4 -10 5 8 8 31 5 50 -2 20 -1
31 4 26 10 -15 31 -13 42 5 16 24 11 35 -5 14 -16 -19 -16 -19 -13 1 2 13 11
20 25 21 l22 1 -20 -39 c-11 -21 -24 -36 -29 -33 -6 4 -10 -2 -10 -12 0 -11
-11 -34 -25 -53 -14 -19 -25 -40 -25 -46 0 -7 -7 -17 -16 -22 -11 -6 -14 -19
-12 -43 l4 -34 12 28 c16 38 24 34 16 -9 -5 -28 -2 -40 14 -57 18 -19 32 -56
34 -94 1 -7 6 -13 11 -13 9 0 7 20 -8 66 -5 15 -2 23 10 28 14 5 16 2 12 -13
-2 -10 -1 -25 4 -32 6 -10 9 -8 9 9 0 13 5 22 11 20 6 -2 10 -7 10 -11 -1 -4
6 -21 14 -37 14 -27 14 -30 0 -30 -19 0 -19 -14 0 -30 12 -10 16 -8 24 11 5
13 5 31 2 39 -14 29 -3 145 22 240 28 102 73 210 88 210 5 0 14 11 19 25 5 14
14 25 20 25 5 0 10 7 10 16 0 8 4 12 10 9 10 -6 38 49 60 118 11 35 10 42 -15
79 -15 22 -22 37 -16 34 7 -5 12 10 13 46 1 51 2 52 5 10 3 -33 8 -42 19 -38
8 3 14 0 15 -7 1 -7 5 -1 9 13 7 22 8 21 9 -13 1 -23 -3 -36 -9 -32 -6 4 -9
-10 -9 -37 1 -24 4 -33 6 -20 5 23 23 31 23 10 1 -7 7 2 15 20 8 18 14 37 12
42 -1 4 2 8 7 8 5 0 12 6 17 14 6 10 11 10 21 0 14 -14 32 -16 23 -3 -9 15 14
24 30 11 22 -19 25 4 4 39 -19 31 -19 32 0 21 14 -7 21 -6 24 3 3 8 10 4 22
-10 9 -13 20 -23 26 -23 14 0 10 43 -7 65 -15 20 -15 20 -30 1 -12 -17 -14
-17 -14 -4 0 9 4 19 9 22 5 3 7 16 4 29 -4 17 0 14 16 -10 12 -20 29 -33 41
-33 11 0 20 -6 20 -12 0 -7 16 -23 36 -36 19 -12 32 -27 29 -32 -3 -5 -1 -11
5 -15 6 -3 10 4 10 16 0 22 2 21 36 -12 l37 -34 -7 28 c-8 34 0 34 36 0 35
-34 46 -25 16 13 l-23 29 33 -23 c17 -13 32 -32 32 -42 0 -10 4 -22 10 -25 6
-3 7 1 4 9 -8 21 19 21 36 1 11 -14 14 -13 25 2 7 9 11 23 8 30 -3 7 2 13 12
13 9 0 13 -4 10 -10 -10 -16 14 -50 35 -50 11 0 20 -6 20 -13 0 -13 40 -37 60
-37 22 0 8 19 -20 29 -34 11 -41 31 -10 28 11 -1 20 -5 20 -10 0 -4 4 -6 10
-2 5 3 16 -8 25 -25 9 -17 20 -28 25 -25 5 3 26 -1 46 -10 20 -8 47 -15 60
-15 12 0 26 -5 30 -11 4 -8 -1 -9 -16 -4 -15 5 -20 4 -16 -4 8 -12 -21 -4 -42
12 -22 17 -23 2 -2 -21 12 -12 32 -22 45 -22 13 0 27 -4 30 -10 3 -5 32 -10
63 -10 37 0 66 -6 82 -17 14 -9 19 -10 13 -3 -19 20 -16 30 8 30 11 0 17 -4
14 -10 -4 -6 4 -6 21 0 20 8 29 8 35 -2 4 -7 12 -9 16 -4 4 4 -1 14 -11 22
-17 12 -17 14 -4 14 10 0 31 -24 50 -55 24 -40 38 -54 51 -51 11 3 17 -2 17
-13 0 -10 11 -24 25 -31 14 -7 23 -16 20 -18 -3 -3 4 -15 15 -27 12 -12 20
-27 18 -32 -2 -5 10 -21 26 -36 16 -15 25 -27 20 -27 -5 0 -4 -4 1 -8 21 -15
40 -81 57 -194 7 -43 16 -78 21 -78 6 0 6 -5 0 -12 -5 -7 -10 -43 -12 -80 -3
-65 -2 -68 21 -68 14 0 31 12 45 32 l22 31 6 -34 c3 -19 2 -47 -4 -62 -14 -37
-15 -37 12 -37 20 0 25 7 33 48 6 28 14 46 22 44 12 -2 16 22 15 110 0 26 4
45 8 42 5 -3 9 0 9 6 0 6 5 8 12 4 6 -4 8 -3 5 3 -5 9 12 29 39 46 13 8 18
-39 17 -143 0 -61 1 -70 9 -45 5 17 16 44 23 60 15 35 26 81 29 130 3 30 0 35
-18 36 -20 0 -20 1 2 10 25 10 21 29 -6 29 -15 0 -15 2 -2 10 12 8 9 10 -13
10 -16 0 -26 4 -22 10 4 6 19 4 42 -5 20 -8 38 -13 41 -10 3 3 0 5 -7 5 -7 0
-9 5 -5 12 18 29 10 49 -25 65 -32 15 -34 17 -13 20 12 3 38 -1 58 -7 19 -7
38 -9 41 -6 4 3 -1 6 -9 6 -9 0 -19 7 -22 16 -3 8 -10 12 -16 9 -5 -3 -10 3
-10 14 0 16 -6 21 -28 21 -16 0 -37 7 -48 15 -19 14 -18 14 4 15 34 0 26 17
-24 53 -25 17 -55 49 -65 70 -11 20 -17 37 -14 37 2 0 11 -13 19 -28 16 -31
45 -39 48 -13 0 9 2 22 2 29 1 7 7 16 13 20 20 13 -5 79 -32 86 -29 7 -76 76
-70 103 3 17 -5 27 -30 43 -19 12 -42 23 -52 25 -10 2 -27 7 -37 11 -16 6 -18
4 -13 -9 4 -10 1 -17 -6 -18 -7 -1 -1 -5 13 -9 18 -6 20 -8 7 -9 -17 -1 -17
-4 4 -33 31 -43 45 -58 58 -58 6 0 11 -4 11 -10 0 -11 -46 4 -67 22 -7 6 -31
10 -53 10 -28 -1 -40 3 -40 14 0 17 31 19 48 2 6 -6 14 -9 17 -6 9 9 -7 38
-21 38 -8 0 -14 7 -14 15 0 19 -5 19 -37 -2 -14 -9 -46 -18 -70 -18 -27 -1
-39 1 -31 6 7 5 30 9 51 9 21 0 36 4 33 9 -3 5 4 12 17 16 l22 8 -22 4 c-13 2
-23 9 -23 14 0 5 -8 9 -17 9 -10 0 -25 5 -33 11 -12 9 -11 10 6 6 17 -4 20 -1
17 14 -4 15 0 19 18 19 19 0 21 2 9 10 -9 6 -18 6 -24 0 -6 -6 -23 -10 -38
-10 -15 0 -28 -4 -28 -10 0 -5 5 -10 12 -10 6 0 9 -2 6 -5 -8 -9 -82 26 -95
45 -15 21 -46 17 -78 -9 -19 -16 -19 -16 -2 12 13 19 14 27 5 27 -10 0 -10 2
0 9 11 6 8 15 -14 37 -15 16 -24 23 -19 16 5 -10 2 -13 -10 -10 -10 1 -20 8
-22 13 -6 18 60 17 101 -2 l39 -17 -29 -13 c-16 -7 -22 -12 -14 -13 13 0 13
-1 0 -10 -11 -8 -8 -9 11 -4 15 3 30 1 33 -5 4 -6 13 -11 19 -11 7 0 4 6 -5
14 -10 7 -15 16 -11 19 11 12 51 8 65 -7 20 -20 57 -29 71 -18 7 6 38 6 77 2
35 -5 68 -6 72 -3 15 8 76 -17 104 -45 16 -15 40 -36 54 -47 43 -35 110 -131
110 -159 0 -8 7 -17 16 -20 13 -5 15 -2 9 16 -4 13 -9 36 -12 53 -3 16 -15 42
-26 56 -20 28 -15 54 9 45 20 -8 17 8 -6 35 -10 13 -19 18 -20 12 0 -22 -20
-14 -30 12 -5 14 -13 25 -18 25 -5 0 -14 11 -20 24 -8 17 -21 25 -49 29 -21 2
-42 0 -48 -4 -5 -5 -14 -9 -19 -9 -6 0 0 7 12 16 12 8 22 19 22 23 0 11 -39
21 -44 12 -7 -11 -87 -4 -97 8 -5 6 -6 9 -3 6 9 -6 38 25 30 33 -4 3 -11 0
-16 -7 -8 -14 -40 -8 -40 8 0 12 40 19 90 16 22 -1 40 2 40 6 0 5 -7 9 -15 9
-8 0 -15 4 -15 9 0 14 34 23 56 15 18 -6 17 -5 -1 9 -21 17 -60 22 -68 10 -2
-5 -2 -2 0 6 2 9 -3 12 -15 9 -15 -4 -18 1 -16 33 2 37 0 39 -27 39 -22 0 -29
-5 -29 -20 0 -11 -8 -23 -17 -26 -30 -9 -47 -20 -51 -32 -2 -8 3 -10 15 -5 16
6 16 5 4 -10 -11 -14 -11 -18 3 -23 9 -3 14 -10 11 -14 -3 -5 3 -13 12 -19 10
-6 12 -11 6 -11 -7 0 -13 -6 -13 -13 0 -17 -27 -41 -55 -51 -18 -5 -18 -5 -3
6 9 7 25 18 35 24 17 11 16 13 -12 24 -16 6 -36 17 -44 23 -8 7 -44 12 -82 12
-61 0 -90 7 -78 19 2 3 28 6 57 7 28 2 52 6 52 11 0 4 6 8 14 8 8 0 18 5 22
11 4 8 -3 9 -22 5 -16 -3 -75 -7 -131 -8 -71 -2 -103 -6 -103 -14 0 -16 -29
-39 -38 -29 -4 4 -1 10 6 12 6 3 12 11 12 19 0 9 -4 12 -10 9 -5 -3 -10 -1
-10 4 0 6 8 12 18 12 31 2 37 4 56 15 15 9 16 15 6 33 -9 17 -9 26 1 37 6 8
14 12 17 9 7 -6 32 15 32 26 0 12 -52 -1 -63 -15 -6 -8 -10 -7 -14 2 -2 6 -19
13 -36 13 -21 1 -25 3 -12 6 11 3 34 15 50 28 17 12 40 25 53 29 12 4 22 12
22 17 0 5 -12 3 -27 -4 -16 -7 -39 -12 -52 -11 -14 1 -39 -5 -57 -12 -27 -11
-33 -11 -37 1 -6 15 54 41 85 36 26 -3 58 17 58 38 0 16 6 18 39 14 21 -3 47
0 57 6 15 8 7 10 -39 11 -48 0 -60 -3 -63 -18 -6 -21 -48 -42 -73 -35 -21 5
-18 33 4 33 7 0 15 6 18 14 4 9 14 12 25 9 16 -4 20 2 24 26 3 23 1 28 -8 21
-8 -8 -13 -5 -17 10 -3 11 -10 20 -16 20 -18 0 -25 -31 -10 -41 9 -6 -1 -9
-30 -9 -36 0 -41 2 -32 14 9 11 5 12 -28 6 -22 -4 -45 -4 -52 1 -7 4 -17 5
-21 3 -18 -11 8 44 27 58 6 4 8 8 5 8 -39 7 -78 6 -101 0 -18 -5 -27 -5 -24 1
4 5 15 9 25 9 10 0 22 5 25 10 4 6 15 8 25 5 11 -3 34 2 52 11 l33 18 -45 8
c-25 5 -74 7 -110 4 -36 -3 -87 -5 -113 -5 -36 0 -47 -3 -41 -12 5 -9 2 -10
-12 -5 -10 4 -30 9 -44 11 -106 17 -161 29 -166 36 -7 12 -45 11 -64 -1z m465
-140 c-3 -5 -13 -10 -21 -10 -8 0 -14 5 -14 10 0 6 9 10 21 10 11 0 17 -4 14
-10z m-231 -29 c3 -5 -1 -11 -9 -15 -15 -6 -29 7 -18 18 9 9 21 8 27 -3z m71
-1 c4 -6 -7 -10 -25 -10 -18 0 -29 4 -25 10 3 6 15 10 25 10 10 0 22 -4 25
-10z m-285 -50 c6 -11 9 -20 7 -20 -2 0 -12 9 -22 20 -10 11 -13 20 -7 20 6 0
16 -9 22 -20z m25 -41 c16 -16 -30 -10 -51 6 -18 14 -17 15 11 9 17 -4 34 -11
40 -15z m82 11 c-16 -5 -38 -5 -50 0 -17 7 -10 9 28 9 43 -1 46 -2 22 -9z
m488 -120 c3 -5 2 -10 -4 -10 -5 0 -18 -3 -28 -7 -16 -6 -16 -5 -4 10 15 19
27 22 36 7z m-876 -82 c-1 -24 4 -54 12 -68 27 -48 80 -109 112 -130 24 -16
27 -17 11 -3 -19 17 -49 63 -41 63 2 0 22 -20 46 -45 24 -25 36 -42 27 -39 -9
3 -16 1 -16 -5 0 -20 -16 -11 -64 37 -49 48 -106 146 -106 181 0 21 10 51 17
51 2 0 3 -19 2 -42z m421 22 c13 -9 13 -10 0 -9 -8 0 -24 4 -35 9 l-20 9 20 0
c11 0 27 -4 35 -9z m956 -38 c-9 -9 -37 8 -31 18 5 8 11 7 21 -1 8 -6 12 -14
10 -17z m-49 -157 c-15 -32 -26 -32 -19 0 2 14 10 25 17 25 10 0 11 -5 2 -25z
m-356 -35 c5 0 9 -4 9 -9 0 -12 -38 -2 -47 12 -4 7 0 8 11 4 10 -4 22 -7 27
-7z m459 1 c0 -12 -20 -25 -27 -18 -7 7 6 27 18 27 5 0 9 -4 9 -9z m-1632 -38
c-12 -21 -23 -39 -24 -41 -1 -2 -4 1 -8 6 -5 9 34 72 46 72 4 0 -2 -17 -14
-37z m1100 -2 c31 -1 32 -2 17 -17 -9 -10 -22 -13 -33 -9 -35 15 -64 11 -72
-10 -7 -17 -8 -15 -8 10 1 27 4 30 32 28 17 -1 46 -2 64 -2z m295 -108 c-3 -7
-9 -13 -14 -13 -5 0 -9 -6 -9 -14 0 -19 -63 -26 -79 -9 -9 10 -7 15 14 23 14
5 25 14 25 19 0 5 15 9 34 8 22 -1 32 -6 29 -14z m-645 -2 c10 -6 7 -10 -12
-13 -25 -5 -33 1 -19 15 8 9 15 9 31 -2z m-693 -113 c-8 -36 -31 -78 -44 -78
-7 0 39 108 47 109 2 1 1 -14 -3 -31z m1025 -40 c0 -6 -7 -5 -15 2 -8 7 -15
17 -15 22 0 6 7 5 15 -2 8 -7 15 -17 15 -22z m365 2 c12 -19 -12 -10 -31 11
-19 22 -19 22 3 10 12 -6 25 -16 28 -21z m333 -52 c29 -54 14 -68 -27 -26 -28
29 -30 33 -14 40 10 3 12 7 6 7 -7 1 -13 6 -13 11 0 24 27 6 48 -32z m-208 -8
c6 -11 9 -20 7 -20 -2 0 -12 9 -22 20 -10 11 -13 20 -7 20 6 0 16 -9 22 -20z
m11 -40 c5 0 9 -4 9 -9 0 -12 -38 -2 -47 12 -4 7 0 8 11 4 10 -4 22 -7 27 -7z
m172 -132 c9 -31 2 -33 -11 -3 -6 14 -8 25 -3 25 5 0 11 -10 14 -22z m61 -125
c9 4 16 2 16 -4 0 -5 -10 -14 -22 -19 -13 -5 -17 -9 -9 -9 8 -1 11 -4 7 -8
-15 -15 -32 -10 -43 13 -9 19 -8 24 3 24 8 0 14 6 14 13 0 8 3 8 9 -2 5 -8 16
-11 25 -8z m-8 -79 c18 -14 18 -15 -6 -8 -17 4 -22 3 -15 -4 6 -5 19 -12 30
-15 13 -3 9 -5 -12 -6 -73 -3 -90 34 -22 48 3 0 14 -6 25 -15z m27 -57 c-17
-5 -43 -7 -57 -3 -46 11 -28 21 31 17 55 -4 56 -5 26 -14z"/>
<path d="M2960 4559 c0 -5 7 -9 15 -9 8 0 15 -4 15 -10 0 -5 17 -10 38 -9 35
0 36 1 12 11 -48 20 -80 27 -80 17z"/>
<path d="M2579 4474 c-24 -26 -28 -33 -12 -25 12 6 25 16 28 21 4 6 11 8 16 5
5 -4 9 3 9 14 0 12 -1 21 -3 21 -2 0 -19 -16 -38 -36z"/>
<path d="M1745 4471 c-6 -11 9 -23 19 -14 9 9 7 23 -3 23 -6 0 -12 -4 -16 -9z"/>
<path d="M3089 4406 c-3 -3 -40 -6 -82 -7 -80 -2 -125 -21 -109 -46 5 -8 16
-8 45 2 23 8 37 9 37 3 0 -6 9 -8 20 -5 25 6 26 -8 3 -22 -10 -5 -15 -12 -11
-16 3 -4 16 3 27 14 29 29 40 26 47 -9 4 -16 11 -27 16 -24 14 9 77 -27 72
-40 -2 -6 10 -17 28 -25 18 -8 40 -20 48 -27 17 -14 133 -17 124 -2 -3 5 -43
27 -90 50 -46 22 -84 41 -84 42 0 1 16 0 36 -2 48 -6 37 13 -13 23 -30 6 -34
9 -19 14 14 5 3 11 -38 20 -31 7 -56 17 -56 22 0 5 -8 9 -17 10 -10 1 -2 5 17
9 19 5 38 6 42 4 5 -3 8 0 8 5 0 11 -42 16 -51 7z"/>
<path d="M2770 4330 c0 -10 31 -18 48 -13 22 8 12 20 -18 21 -16 0 -30 -3 -30
-8z"/>
<path d="M1494 4279 c-19 -22 -19 -22 3 -10 24 12 39 31 25 31 -5 0 -17 -10
-28 -21z"/>
<path d="M2964 4292 c-9 -5 -8 -10 2 -19 9 -9 15 -10 20 -2 8 14 -8 30 -22 21z"/>
<path d="M2890 4278 c0 -12 38 -10 45 2 4 6 -5 9 -19 8 -15 -1 -26 -6 -26 -10z"/>
<path d="M2816 4261 c-11 -4 -15 -10 -10 -13 10 -6 54 8 54 17 0 7 -21 5 -44
-4z"/>
<path d="M2810 4208 c-19 -18 -38 -33 -42 -33 -16 0 -16 -12 0 -12 9 0 23 7
30 16 11 14 11 14 6 -2 -4 -12 -2 -16 7 -12 11 4 43 75 35 75 -1 0 -17 -15
-36 -32z"/>
<path d="M2932 4140 c-26 -35 -27 -41 -7 -35 49 16 48 14 34 31 -11 13 -10 15
6 12 10 -1 20 3 22 10 9 25 -34 11 -55 -18z"/>
<path d="M3172 4135 c-11 -13 -9 -17 13 -25 15 -6 40 -10 56 -10 26 0 30 3 27
23 -2 18 -10 22 -43 24 -26 2 -45 -3 -53 -12z"/>
<path d="M2840 4110 c-12 -8 -11 -10 7 -10 12 0 25 5 28 10 8 13 -15 13 -35 0z"/>
<path d="M3369 4078 c4 -13 6 -28 4 -34 -4 -12 45 -49 54 -40 10 9 -6 51 -27
74 -27 29 -42 29 -31 0z"/>
<path d="M1286 4065 c-3 -9 -11 -13 -17 -10 -6 5 -9 0 -8 -11 2 -11 0 -25 -4
-31 -5 -8 -3 -11 5 -8 13 5 41 65 34 72 -2 2 -6 -3 -10 -12z"/>
<path d="M3320 3957 c0 -1 14 -15 30 -31 30 -28 31 -28 19 -3 -6 14 -20 28
-30 30 -11 3 -19 4 -19 4z"/>
<path d="M3420 3941 c0 -7 7 -19 15 -27 13 -13 15 -13 15 -1 0 8 -7 20 -15 27
-11 9 -15 10 -15 1z"/>
<path d="M1381 3864 c-26 -12 -31 -18 -22 -27 8 -8 18 -5 38 16 31 31 31 31
-16 11z"/>
<path d="M3175 3860 c3 -6 20 -17 36 -26 29 -15 30 -14 20 4 -10 19 -32 32
-52 32 -6 0 -7 -5 -4 -10z"/>
<path d="M1343 3813 c4 -3 -3 -18 -15 -32 l-23 -26 27 24 c24 21 29 41 11 41
-4 0 -3 -3 0 -7z"/>
<path d="M3257 3757 c45 -37 93 -69 93 -62 0 3 -12 22 -26 41 -19 24 -32 33
-45 29 -9 -3 -20 -1 -24 5 -3 5 -11 10 -16 10 -6 0 2 -10 18 -23z"/>
<path d="M1268 3729 c-10 -5 -18 -20 -18 -32 1 -20 2 -21 14 -4 7 9 18 17 25
17 6 0 11 7 11 15 0 17 -8 18 -32 4z"/>
<path d="M3346 3664 c4 -11 18 -38 31 -60 13 -23 23 -46 22 -50 -1 -5 0 -12 1
-16 1 -5 3 -11 5 -15 6 -22 20 -49 32 -61 11 -11 13 -10 13 5 0 11 -6 25 -12
32 -10 11 -10 13 0 7 21 -12 13 12 -10 28 -12 9 -17 16 -10 16 7 0 10 5 6 11
-4 7 1 9 12 7 11 -2 18 -9 17 -14 -1 -6 4 -11 12 -11 10 0 11 5 4 19 -5 10
-16 18 -23 18 -23 0 -56 44 -49 68 4 16 1 22 -10 22 -8 0 -23 3 -31 6 -13 5
-15 2 -10 -12z"/>
<path d="M1697 3600 c8 -30 21 -34 15 -5 -2 14 -8 25 -12 25 -5 0 -6 -9 -3
-20z"/>
<path d="M2377 3607 c4 -8 106 -57 116 -57 3 0 0 11 -6 24 -7 13 -15 22 -18
20 -4 -2 -9 3 -13 11 -3 10 -18 14 -45 12 -21 -1 -37 -6 -34 -10z"/>
<path d="M1272 3559 c-7 -10 -8 -19 -3 -19 13 0 33 28 23 33 -4 3 -13 -3 -20
-14z"/>
<path d="M2195 3540 c30 -32 108 -86 177 -122 41 -22 54 -54 17 -43 -13 5 -19
3 -15 -3 8 -13 -27 -10 -36 3 -4 6 -8 -10 -8 -35 0 -25 -4 -51 -9 -59 -5 -8
-2 -25 7 -45 9 -17 18 -59 20 -92 4 -58 6 -61 29 -61 13 0 39 -14 56 -30 32
-30 64 -48 80 -44 5 1 6 -3 3 -7 -9 -15 32 -45 53 -39 15 3 18 1 14 -12 -4
-13 -3 -13 5 -2 5 7 16 10 23 7 8 -4 3 2 -10 13 l-23 21 58 -4 c56 -4 113 8
100 21 -3 4 -28 7 -55 8 -47 2 -82 20 -145 78 -11 9 -24 17 -30 17 -6 0 0 7
12 16 13 9 30 13 39 9 15 -5 15 -4 0 13 -21 23 -21 28 1 53 19 19 19 19 34
-19 10 -25 26 -43 47 -54 20 -9 29 -18 22 -22 -6 -4 -17 -4 -23 1 -7 4 -30 8
-51 8 l-38 1 28 -15 c19 -10 54 -15 105 -14 63 0 80 4 99 22 27 25 52 27 69 6
7 -9 29 -15 54 -15 41 1 41 1 16 15 -21 12 -22 14 -6 15 11 0 16 3 13 7 -4 3
3 17 15 30 12 13 16 23 10 23 -6 0 -9 9 -7 20 2 11 0 20 -6 20 -12 0 -12 52 1
85 9 23 7 27 -28 41 -44 20 -51 23 -87 48 -35 25 -165 30 -165 7 0 -12 -3 -12
-12 -3 -17 17 -45 15 -101 -5 -38 -14 -50 -15 -56 -5 -4 7 -14 10 -23 7 -23
-9 -140 49 -225 111 -58 42 -70 48 -48 24z m615 -280 c12 -8 11 -10 -7 -10
-12 0 -25 5 -28 10 -8 13 15 13 35 0z m-80 -115 c-9 -11 -9 -15 -1 -15 7 0 9
-4 6 -10 -3 -5 -10 -10 -16 -10 -13 0 -11 24 3 38 17 17 23 15 8 -3z"/>
<path d="M2510 3550 c0 -5 10 -10 23 -10 18 0 19 2 7 10 -19 13 -30 13 -30 0z"/>
<path d="M1362 3480 c2 -8 -3 -14 -9 -15 -7 0 -13 -3 -13 -7 0 -5 0 -12 0 -18
0 -17 14 -11 28 11 10 16 11 24 2 33 -9 8 -11 7 -8 -4z"/>
<path d="M1702 3436 c-54 -41 -60 -49 -50 -72 8 -17 18 -22 44 -19 19 1 72
-10 117 -26 45 -15 76 -28 70 -29 -7 0 -44 -15 -83 -34 -38 -18 -70 -31 -70
-29 0 2 5 13 10 24 15 26 -2 24 -28 -4 -25 -27 -29 -42 -8 -34 8 3 17 -1 20
-8 3 -9 12 -12 21 -9 9 4 25 -2 35 -11 22 -20 26 -14 10 15 -8 15 -6 20 11 25
11 4 21 5 22 3 1 -1 12 -18 25 -35 20 -29 20 -33 6 -33 -10 0 -14 -3 -11 -7 4
-4 30 -6 57 -4 41 2 49 -1 44 -13 -4 -11 -14 -14 -32 -9 -18 4 -23 3 -17 -6 4
-8 25 -11 56 -8 27 2 53 1 59 -3 6 -3 -18 -23 -52 -44 l-63 -37 43 3 c24 1 46
6 48 10 3 5 9 6 14 3 15 -9 80 36 80 56 0 14 -7 19 -30 19 -20 0 -30 5 -30 15
0 11 11 15 38 15 46 0 55 6 41 31 -12 24 -2 24 23 2 16 -15 21 -15 28 -3 5 8
6 18 4 22 -3 5 6 32 21 59 30 58 30 92 0 97 -29 4 -127 33 -148 44 -10 5 -22
6 -26 3 -5 -2 -14 2 -21 10 -7 8 -20 15 -29 15 -9 0 -23 6 -29 12 -10 10 -14
10 -21 0 -6 -10 -15 -9 -44 3 -24 10 -38 11 -42 4 -4 -6 -11 -7 -18 -1 -20 16
-65 11 -95 -12z m306 -237 c2 -13 -47 -44 -56 -35 -2 3 4 16 15 30 19 27 36
29 41 5z"/>
<path d="M3457 3374 c-12 -12 -8 -21 12 -27 13 -3 18 0 17 11 -3 18 -19 26
-29 16z"/>
<path d="M1246 3205 c-20 -20 -20 -25 -2 -25 8 0 17 7 20 16 9 24 1 28 -18 9z"/>
<path d="M1174 3176 c-17 -13 -18 -16 -3 -33 9 -10 14 -24 11 -32 -2 -8 3 -6
15 5 16 15 18 23 10 39 -6 11 -9 22 -8 23 8 11 -8 10 -25 -2z"/>
<path d="M2102 2664 c-24 -17 -30 -64 -9 -64 24 0 78 31 74 43 -1 5 -12 16
-23 24 -17 11 -23 10 -42 -3z"/>
<path d="M2343 2663 c-10 -16 -13 -16 -22 -3 -9 13 -13 13 -38 -1 -15 -9 -33
-14 -40 -12 -6 2 -16 -5 -22 -15 -8 -16 -6 -25 14 -46 13 -14 31 -26 39 -26 8
0 17 -4 20 -9 10 -16 57 -19 63 -5 3 9 20 14 44 14 26 0 44 7 59 22 26 28 25
34 -9 69 -35 34 -89 40 -108 12z"/>
<path d="M1810 2544 c-23 -21 -40 -46 -40 -57 0 -20 1 -20 17 3 9 14 30 40 46
58 41 43 27 41 -23 -4z"/>
<path d="M2650 2544 c8 -10 25 -27 36 -36 12 -10 31 -37 43 -60 l21 -43 0 36
c0 37 -37 82 -90 109 -24 13 -24 12 -10 -6z"/>
<path d="M2243 2539 c-11 -13 -18 -35 -38 -119 -5 -25 -5 -25 5 -2 5 13 14 20
20 17 5 -3 10 2 10 12 0 11 5 24 11 30 6 6 9 25 7 43 -2 28 -5 31 -15 19z"/>
<path d="M3160 2480 c0 -15 7 -20 25 -20 l25 0 -20 20 c-11 11 -22 20 -25 20
-3 0 -5 -9 -5 -20z"/>
<path d="M1846 2374 c-9 -23 -8 -23 14 -19 12 2 20 -2 20 -10 0 -11 8 -13 28
-9 19 4 32 1 41 -10 8 -9 18 -16 23 -16 11 0 -50 53 -79 69 -29 15 -40 14 -47
-5z"/>
<path d="M2618 2378 c-7 -4 -29 -8 -48 -7 -45 2 -92 -10 -84 -23 13 -21 -19
-38 -73 -38 -30 0 -80 -7 -110 -16 -36 -10 -70 -14 -99 -9 -26 4 -44 2 -44 -3
0 -6 -10 -8 -22 -6 -15 3 -10 -2 12 -13 29 -15 59 -18 174 -16 127 2 144 4
188 27 26 14 48 21 48 15 0 -8 21 -8 91 0 4 1 9 13 12 29 3 15 8 34 12 43 4
12 -1 18 -19 21 -13 3 -31 1 -38 -4z"/>
<path d="M2025 2300 c11 -5 29 -9 40 -9 17 -1 17 1 5 9 -8 5 -26 9 -40 9 -23
0 -23 -1 -5 -9z"/>
<path d="M2145 2160 c-9 -14 12 -21 52 -16 25 4 43 0 55 -11 16 -14 19 -14 33
1 9 9 21 16 26 16 5 0 9 4 9 10 0 12 -168 12 -175 0z"/>
<path d="M2359 2153 c4 -9 0 -31 -12 -55 -19 -37 -22 -40 -56 -36 -19 3 -46
-1 -60 -8 -14 -7 -45 -11 -75 -8 -37 3 -44 1 -26 -5 14 -5 91 -8 173 -7 111 1
147 -2 147 -11 0 -7 5 -13 10 -13 6 0 10 5 10 10 0 6 7 10 15 10 10 0 15 -10
15 -30 0 -37 11 -38 36 -4 10 14 25 32 32 40 11 12 11 14 0 15 -7 1 -16 1 -20
0 -5 0 -8 4 -8 10 0 6 -19 10 -47 9 -90 -3 -88 -4 -54 39 30 38 31 40 11 46
-11 3 -24 3 -30 0 -5 -3 -10 -2 -10 3 0 5 -13 9 -30 9 -22 0 -27 -4 -21 -14z"/>
<path d="M2972 2149 c-7 -12 -11 -24 -7 -27 7 -8 25 17 25 36 0 17 -3 15 -18
-9z"/>
<path d="M2800 2137 c-8 -7 -16 -25 -18 -41 -2 -16 -15 -52 -29 -79 -21 -42
-27 -48 -35 -34 -11 21 -28 22 -28 1 0 -11 -6 -14 -21 -9 -18 6 -20 4 -14 -14
4 -15 -1 -27 -19 -45 -14 -13 -26 -28 -26 -35 0 -18 -55 -71 -96 -92 -42 -21
-69 -25 -59 -8 4 5 4 21 1 34 -5 19 -12 23 -33 21 -16 -2 -33 3 -39 12 -9 12
-14 9 -34 -19 -37 -53 -71 -81 -86 -69 -8 7 -13 7 -16 1 -2 -6 -9 -7 -17 -2
-12 8 -11 15 3 50 9 23 16 56 16 74 0 31 4 35 71 68 83 40 71 52 -14 14 -32
-14 -66 -25 -76 -25 -26 0 -46 -26 -26 -34 16 -6 21 -56 6 -56 -15 0 -46 -73
-32 -78 27 -9 8 -22 -32 -22 -24 0 -46 -3 -50 -6 -9 -9 26 -44 45 -44 11 0 15
-5 12 -14 -11 -29 77 -47 243 -49 45 0 80 -4 77 -9 -3 -4 13 -8 35 -8 22 0 42
4 45 9 3 4 31 21 63 37 54 27 83 53 160 138 28 31 30 37 15 45 -15 8 -13 14
12 62 l29 52 -27 -5 c-44 -9 -54 46 -13 73 5 4 13 24 17 45 4 22 11 47 15 57
8 20 -3 22 -25 4z"/>
<path d="M1484 1803 c-26 -37 -57 -81 -70 -98 -12 -16 -78 -68 -147 -115 -69
-47 -123 -88 -121 -92 3 -4 -3 -5 -12 -1 -13 5 -15 3 -9 -7 5 -8 4 -11 -2 -7
-6 4 -26 0 -45 -7 -18 -8 -72 -24 -118 -36 -105 -27 -207 -74 -280 -129 -30
-23 -75 -48 -100 -55 -25 -8 -97 -34 -160 -59 -63 -24 -126 -48 -140 -52 -14
-4 -73 -28 -133 -52 -60 -26 -116 -43 -127 -40 -20 5 -20 -2 -20 -524 l0 -529
2300 0 2300 0 0 366 c0 262 -3 363 -11 358 -12 -7 -49 9 -88 38 -13 10 -42 19
-65 19 -22 1 -33 3 -23 6 28 7 20 20 -30 49 -27 15 -70 42 -98 59 -27 18 -98
55 -157 83 -59 29 -122 65 -140 81 -19 16 -90 57 -158 90 -69 33 -172 90 -230
127 -58 37 -134 83 -169 103 -80 46 -216 186 -307 318 -77 112 -112 153 -131
153 -16 0 -16 4 3 -71 16 -62 16 -65 -11 -164 -29 -105 -65 -195 -146 -360
-27 -55 -42 -91 -34 -81 24 31 18 11 -20 -63 -19 -38 -40 -91 -46 -117 -7 -27
-14 -51 -16 -53 -2 -3 -16 10 -32 29 l-28 34 -7 -45 c-7 -46 -51 -199 -66
-234 -8 -16 -9 -14 -5 10 3 19 -1 14 -10 -15 -8 -25 -13 -51 -10 -58 2 -6 1
-12 -4 -12 -5 0 -11 -12 -14 -27 -3 -16 -8 -37 -12 -48 -3 -11 3 -4 14 15 36
64 54 105 66 155 8 28 14 41 14 30 1 -17 3 -17 11 -5 5 8 10 25 10 38 0 12 9
31 20 42 11 11 20 29 20 39 0 10 6 21 14 24 21 8 13 -14 -102 -294 -139 -341
-148 -364 -171 -455 -31 -122 -47 -154 -76 -154 -20 0 -24 6 -28 38 l-4 37 -1
-37 -2 -37 -279 -1 -280 -1 -4 23 -4 23 -2 -22 c-2 -35 -19 -27 -24 10 l-4 32
-1 -32 c-1 -18 -7 -33 -13 -33 -8 0 -10 22 -6 73 4 54 3 62 -3 32 -5 -22 -9
-55 -9 -72 -1 -18 -6 -33 -12 -33 -8 0 -10 18 -6 58 3 31 8 84 11 117 5 51 4
54 -4 20 -4 -22 -12 -75 -15 -117 l-8 -78 -41 0 -42 0 -13 287 c-7 159 -15
359 -18 446 -4 98 -9 153 -15 145 -6 -8 -8 20 -6 74 2 47 0 84 -3 82 -10 -6
-20 26 -13 37 3 6 8 151 10 322 2 172 8 346 13 387 5 41 8 76 6 78 -2 2 -24
-27 -51 -65z"/>
<path d="M1610 1703 c26 -82 66 -168 105 -227 44 -67 149 -176 203 -211 51
-34 91 -97 112 -178 14 -55 18 -60 53 -72 21 -7 46 -20 56 -29 28 -26 49 -20
56 17 12 60 29 102 50 124 53 58 53 56 2 51 -44 -5 -62 3 -34 16 6 3 -2 3 -19
0 -21 -3 -35 0 -44 11 -8 10 -9 15 -1 15 28 0 7 18 -31 26 -30 6 -46 16 -53
32 -5 12 -15 20 -21 18 -7 -3 -20 4 -30 15 -9 10 -24 19 -33 20 -13 0 -12 2 2
8 17 6 16 8 -7 19 -14 6 -26 16 -26 21 0 5 -13 14 -30 21 -16 7 -27 16 -24 21
3 5 2 9 -3 9 -4 0 -14 14 -22 30 -9 21 -22 33 -42 37 -15 3 -27 8 -26 12 1 3
-18 27 -43 53 -25 25 -70 80 -100 122 -30 41 -58 75 -61 75 -4 1 1 -25 11 -56z"/>
<path d="M1667 1324 c-32 -17 -58 -61 -86 -143 -12 -35 -27 -76 -34 -90 -8
-16 -10 -46 -6 -81 5 -49 6 -50 8 -15 2 54 20 83 22 35 1 -34 1 -34 10 9 15
76 19 70 15 -19 -4 -75 -3 -79 5 -35 21 109 28 112 24 10 l-4 -100 13 95 c13
93 29 150 42 150 3 0 4 -12 0 -27 -4 -24 -3 -23 10 6 12 27 18 31 25 20 12
-19 11 -7 -1 26 -9 24 -8 27 7 21 17 -6 17 -5 1 8 -21 16 -24 28 -5 20 14 -5
16 1 19 56 1 20 6 29 14 26 9 -3 11 1 7 11 -5 12 -3 14 7 8 8 -5 11 -3 8 6 -6
18 -68 20 -101 3z"/>
<path d="M2320 1215 c0 -8 5 -15 10 -15 6 0 10 7 10 15 0 8 -4 15 -10 15 -5 0
-10 -7 -10 -15z"/>
<path d="M2425 1216 c-25 -26 -24 -33 3 -29 l27 4 -27 -16 c-31 -17 -37 -28
-11 -18 10 4 14 2 10 -4 -5 -7 1 -9 15 -5 20 5 21 3 11 -10 -7 -8 -10 -17 -7
-20 3 -3 -11 -16 -30 -28 -20 -12 -36 -23 -36 -24 0 -7 58 2 78 13 33 18 27 6
-10 -18 -18 -11 -27 -21 -20 -21 7 0 10 -5 7 -11 -4 -6 12 -1 34 11 60 30 91
41 91 31 0 -5 -9 -11 -19 -14 -15 -3 -21 -17 -26 -53 -4 -27 -9 -58 -11 -69
-4 -16 -3 -17 4 -5 6 8 13 33 16 55 4 22 12 47 17 55 10 15 8 -34 -6 -107 -2
-16 2 -5 10 22 34 113 35 114 30 53 -3 -31 -8 -65 -11 -75 -5 -16 -4 -16 5 -1
6 9 18 43 26 75 l15 58 -4 -60 c-5 -55 -4 -57 7 -28 18 49 26 49 21 1 l-4 -43
13 40 c13 38 12 43 -19 105 -35 70 -67 110 -100 128 -32 17 -87 21 -99 8z m25
-126 c-24 -19 -40 -25 -40 -15 0 5 51 34 60 34 3 0 -6 -8 -20 -19z"/>
<path d="M2270 1199 c0 -5 9 -9 20 -9 11 0 20 4 20 8 0 4 -9 8 -20 9 -11 1
-20 -2 -20 -8z"/>
<path d="M2486 1005 c-3 -9 -6 -26 -5 -38 1 -16 4 -12 10 12 10 34 6 55 -5 26z"/>
<path d="M2421 991 c-12 -21 -26 -129 -16 -119 3 3 7 23 9 46 3 22 10 50 16
62 6 12 9 24 7 27 -3 2 -10 -4 -16 -16z"/>
<path d="M2375 965 c-9 -20 -14 -39 -11 -42 3 -3 12 12 21 32 8 21 13 40 10
43 -2 3 -12 -12 -20 -33z"/>
<path d="M2447 973 c-4 -3 -7 -20 -6 -37 l1 -31 9 34 c10 33 8 47 -4 34z"/>
<path d="M2334 955 c-11 -27 2 -37 14 -11 7 16 8 26 1 26 -5 0 -12 -7 -15 -15z"/>
<path d="M1653 915 c0 -22 2 -30 4 -17 2 12 2 30 0 40 -3 9 -5 -1 -4 -23z"/>
<path d="M1822 890 c0 -19 2 -27 5 -17 2 9 2 25 0 35 -3 9 -5 1 -5 -18z"/>
<path d="M2034 908 c-4 -7 -14 -24 -22 -38 -14 -24 -13 -24 3 -5 20 24 37 55
31 55 -3 0 -8 -6 -12 -12z"/>
<path d="M2040 874 c-12 -19 -21 -37 -18 -39 2 -2 14 14 26 36 28 49 22 52 -8
3z"/>
<path d="M2072 885 c-17 -37 -14 -45 4 -11 11 20 18 25 24 16 5 -7 10 -8 14
-2 3 5 -1 13 -10 16 -21 8 -19 9 -32 -19z"/>
<path d="M1653 635 c0 -22 2 -30 4 -17 2 12 2 30 0 40 -3 9 -5 -1 -4 -23z"/>
<path d="M1635 525 c-3 -31 -5 -59 -2 -61 3 -3 8 20 12 51 3 31 5 59 2 61 -3
3 -8 -20 -12 -51z"/>
<path d="M1652 429 c-12 -69 -22 -136 -21 -150 0 -13 11 37 25 111 13 74 23
142 21 150 -1 8 -13 -42 -25 -111z"/>
<path d="M2386 299 c-4 -28 -5 -53 -3 -56 3 -2 8 19 12 47 4 28 5 53 2 56 -2
3 -7 -19 -11 -47z"/>
<path d="M1652 240 c-7 -47 -12 -103 -11 -125 1 -22 7 12 15 75 16 135 13 173
-4 50z"/>
<path d="M2406 269 c-8 -42 0 -50 9 -9 4 17 5 34 2 36 -2 3 -7 -10 -11 -27z"/>
<path d="M2364 166 c-6 -36 -7 -63 -3 -60 9 5 24 113 17 119 -3 3 -9 -24 -14
-59z"/>
</g>
</svg>
